<mxfile host="app.diagrams.net" modified="2023-06-26T14:49:14.775Z" agent="Mozilla/5.0 (Macintosh; Intel Mac OS X 10_15_7) AppleWebKit/605.1.15 (KHTML, like Gecko) Version/16.4 Safari/605.1.15" etag="KDS5iObVBClfgM-xO2g5" version="21.5.0" type="device">
  <diagram name="Page-1" id="uYtGAEknE4vs2GKqofs1">
    <mxGraphModel dx="1354" dy="702" grid="1" gridSize="10" guides="1" tooltips="1" connect="1" arrows="1" fold="1" page="1" pageScale="1" pageWidth="827" pageHeight="1169" math="0" shadow="0">
      <root>
        <mxCell id="0" />
        <mxCell id="1" parent="0" />
        <mxCell id="tek8j3snjhFoZKs4BNM_-19" value="" style="rounded=1;whiteSpace=wrap;html=1;fillColor=none;dashed=1;strokeWidth=2;" vertex="1" parent="1">
          <mxGeometry x="160" y="40" width="610" height="350" as="geometry" />
        </mxCell>
        <mxCell id="tek8j3snjhFoZKs4BNM_-2" value="" style="rounded=0;whiteSpace=wrap;html=1;" vertex="1" parent="1">
          <mxGeometry x="530" y="80" width="190" height="280" as="geometry" />
        </mxCell>
        <mxCell id="tek8j3snjhFoZKs4BNM_-5" value="" style="group" vertex="1" connectable="0" parent="1">
          <mxGeometry x="540" y="90" width="160" height="30" as="geometry" />
        </mxCell>
        <mxCell id="tek8j3snjhFoZKs4BNM_-3" value="&lt;b&gt;SpringBootApplication&lt;/b&gt;" style="text;html=1;strokeColor=none;fillColor=none;align=center;verticalAlign=middle;whiteSpace=wrap;rounded=0;" vertex="1" parent="tek8j3snjhFoZKs4BNM_-5">
          <mxGeometry x="30" width="130" height="30" as="geometry" />
        </mxCell>
        <mxCell id="tek8j3snjhFoZKs4BNM_-4" value="" style="shape=image;verticalLabelPosition=bottom;labelBackgroundColor=default;verticalAlign=top;aspect=fixed;imageAspect=0;image=data:image/png,iVBORw0KGgoAAAANSUhEUgAAAOEAAADhCAMAAAAJbSJIAAAAh1BMVEX///9tsz9rsjxhrilosTZpsThjry1grihlsDH8/vvy+O77/fn1+vL3+/Xt9ehvtEGTxXV3uE7n8uGMwmzg7tjB3bKp0JPS5sejzYvD3rS82qu216Pb69KKwWmdyoN7ulOCvV6Xx3vL4r642Kau05p4uFCFv2PN48Jaqxl/vFpTqAClzo+fy4dHEDMlAAAP0klEQVR4nNVdh3LqOhAN6lQXisH0fnnw/9/3JBkCuMiyLdvKmXtnMiEhPkjaXW39+akb/d7qGp7u+/XW6TzhbC/uY7acBv6gW/vfrxOD1XR28RAkjCGMAej8AgCAEWKMELDdhKte209aAoPVcswo4cw+eKUCYEYoGi9Xg7afWR/94L5lhOEcal/AiJDz/Dps+9k14B8vkKC8hUtfTcToZbZqm4ESk5kDi61dkiVxZpO2eWTA5/TKLV6cJPVOfttsEhhMz0bovUjC7aLfNqdPrPaEGaP3JMnYxprdet3SSmcvCwieD21z4+iGDjG8fG8A4oQt8+svoentGePI2KnFA9k9IlYnvQgMLdsyXsMm+D056j1RYJRf4NW7P785Ai2ZszVoEI3GsDl+HSFzdvlGgP9vZopfd1aPflABw02eyHGRY4jgymnoAH4D4avysXqwA41Ye/09bXSDvgGoq7pEzlEHnQwQDDBqh58AQtkShy9hBxjYpo+2FvAJuM9SjhvxyVfepr7Xygn8BHLSDXIfylc1NWcWpi0voASgqSxcKd3BrRLBPWybXQSyTuqNCY1eg6Py/Aa31nfoC8hJ8NiJ3cX/s2lpghPUuJLPBoAx1bggfPlW/AnxpSzBhQ1H8APwS/P1OUE8lmcRlvRInmjblOIgm4/HE5qCK4orP0esnF/gQdomlAQb/z6eEDNoz+1lsZT7MgTX1siYT6Dta0N6/AQREfwQ25QVvy93dy3aaSpgJzJT72JzHsVXB/4VKXwP7t8sJSgoioVb8T0KzvJZB3ybontBgsOztQQ5RdD76YvwFn3ao2tc2PoeehapwSRAp+fyFWAv3RGKbVrI+u7bTVAEAISaP7+ed0RfR1IXtgqZb5C3EcfFKihi1lz+BEH6YcIt+RNT/XCya6UejIN9Ck9xTdQ3a+Z/giDefT20A/TNmqkl10E1gPNtas9RBwA9givrjO00ABa7KgZc6ROtyGOvvqCZScC4I79Ldb01tivCCDQpVMbcrNlpENz/DT2xSD75lMtHmn8NXvwJKUPTnDJ6+sL/E1IGpnuduL5Am9RX3ug6f0HKpG1RAaEvvByGm79wCFOETAShL3LcpsEf2KMAZl7l+zDPbdrPzZhsH5gplPqFG26uiqFr/x5FnirpVtwvoOL1q/2KgoyV/rSV2nDrAuv3aHrw6YMCU17077bvUZzvLrxg4ePPgPW6nt3yb/BHvogoayPv7Da4AZ3n8osOIsw4iAcLAxQfQEAr60l1EDs2ixlAc5OGnljzg7hOfeVos2cGYe2IhNCIJO2FvsUEAc3MM0kiUyNarCmIVyTvUMSE00zTnrViBqGCCQjbdJ/izNIlxHReNDjPqaTEoIZ2KntM3eI5MiKiTxO/drJxCTEdl0lV69EUZ03fQoKcX8myEuGsiQeDQ+tUBYJu6VRDF3fANvY9y8wZwMi9Qo6asF3YtwUUWKUqEPSqlXal6PyxPZcKTNi8alXXgMZ1/sgW3wUmyFVnrOuBy0385Re2QlUARKh7NVPnJETNl1+4dQ8iRgRu7+bqemRA/+PDWrUoZwBGjLDxMjBarx6wb1HTgh9fNB1gjEDouctrBb2QgdG357tbv7YXbRSwbKQgWilAhjo3d7Y8rEY1ld51+bFDb6dOXe4Z2RuC86GUdbzb2N3PT8fp4RBMRvU3xLiBT6tmb1oZAswYJJ3zeL5ccD5t9EoQBw+/PseuyVMoG12cN2Hgt9vQQ9jZv0E2c5IUMOi4oRVl5jLt5KV9DPlnMKO3ozXdEGQ8/+U0NRHU5qt3WVjVgYW+7Ta/uk2KiXe0rY8OX7dXGdS0qjZE1G2v6UrmvhG3padb2K2mKxCZmzdJ9JH52c6FZRptrEoxUQRn7Z6+jJyTZ863FOtVjiGGj5alyzVzDQ+/NULljyGAl9aVwzrTXhJansmAeOl7BXLMtmkog1HcofaGCFKgh/jqXO4YAvpojEc2Ztn16UP0LEfslnPmI2xDV67uP8VTCIUoHBmTUkYpGVvRW21KFbewLd+cuF/S1w1NNC8wAKDK7hIqHw4ixVgQgLYvYiQW/1Spso+oslSk1xQliFvXEU8AZXmM8JCSVYmLRVT1ZwOmcKd6WcYugp9hUUHzqtxsH11AMk02gYVguChss9lD8OfEiFKgi0AwOkrPaQGAjjUEe1CdJyvNNnSSS1mAILblDIpM35wsRaHp8Vz69/VBbZGioi4LIPVPSIabn3sRZUFNxL0MwQN55U3Csc83cpELPrPEkhFYss/i2FSIhAywFs5vXcRqGVsFX5/sNOAnBlC25HHymT0BkDViVFpiNO9yI1Ogtj/6ezSzSKUFhCSZTJJAXzD09BnmKJ9GIcruSf4HXpAhsWiPisiZRnMIwdDRZsja7gb7AdHMRG2SSnQLMcytd2sQspmJxhL2CzHMLhVrHAPRVltjCSNZqnsOtWqHG4IoCdFq0SL0oTbDXN3THMQh7MS7maViFGl8vSWs1qzPJA5Ue0uJqy+46DEk1ljcE3lhzyr5if0sv1uAsRZD3UYT9aMnm/cjPeND3IDxQ4th1Z6ZxtCNOj0QvWu4cF+gmRbDKg0ljSJqeaTbJkkE1dBJh2H5bouGsZceF+1mXsJ9waY6tyemoV2bwDxyfCbamWRBJNGw4Oecz1Cjj0YTWEZ+T6RTYykh3Bdk9bPOveNbogzDiCAA2jl/wn3BRUh+0l6x/md1YfoMcxYICol4BRxqlHPpqdeasXgSZPqB54GQS6j/c8xliC2YjfYiWOQS5z9bmB/yfN4ZBbWN4kWwQwvsJ5GcKAzY3MxLCwya1xnskCLPIoJrosyylxd7Yq3ffY8vgsW20wZLk+anmydLzUxUqID7aw0ALlRsIhIVpLGyzVGItKYH18X+9xgVvIaLlRdB7jyFaGKgQhW8uzSTYnpZhn5lbmJOeK1dUTp4NzFGBdtYy8CozC+9qtUFzmsMVid88LvB3n1mNSHS9aJmrTl1eYVbKxvE4d3qHrCiwWeRrvd8ePUatqgOZx8Zd0VUvYRofP0q51ZXj7bmze+uP2yR4nEvefiemk5dXNkWQ9/5eCxSPPgsk9meJrW6xrmlXfo1bYKVkHaS4NP9MlAeRCMjlApj8yn+UF44OwUiwvh+dqVVg4zNMtOH730eHLQr8Rayl9Bvvo3yEqzvFjGG8GseCt6WuZ/KBAz4smOVB7HcRIwKGK6/Hgc7ZWq7pZJ/e0H7Kp3ftNV2/R6ZXDJRUCY+s7eQXCs0YrPB3+7m+9PGJfPopGj5KOVWpnqrukiaxpV9i4SyqZ7yXvEZT1KaprCxbMSBGxuMWTqXVZaMok+3nEpfkKbCvyGMHRZ0LtlAIqpr/srNXCq2aUNm2yoxlg/tyroxo5zZr6FBI0XdTCPqohffoPwBywtxWecUu9jusrdpA8K0O4tvUL7Hyn+wkX6PJRCrKvRqj4+GOPnXYQVjMepQyr6/OVRI05rDh4dOcnQyyOpGroNobEXCN6FIFa41KfHgpUyZwJXkd1QElHDzqmxTVX1YJXQXnbQpGuhcRQUHcjumBD0VxUElB+7lob8EqaO9SbU948n3TOl8qWjOWkumgv+AqfwAraZ/p9FmpEljQdUX0nzo4rCD6ZdS1KkWjx1Eb5t6q1UUPCOzFb/+DGUNsSFuxTP/nK2SuiYThcKA5jKge+GNZH2WAFa1ECMxk3WpVdwSTTm+e9NL+umTYOeqp+E11iEj5Ua5iAbsmlF4gyz7UwRVzJgnnmMdMgsVFMZpbn1KHvzllmavnlhAr3rKx2v+T2ahwkq1iBV0Yj+YI4iUgVgMDTieX8WiIDtMpaiBAqhk6pcfjlGmaHm9ObwYOAVdD+QsoXrUWhmf2+iwR6qj9wQDRlKQ18/PUXndU4WhCpbmDYO7p8FONrgxYvfeX0aZsrJUWfasH+EaBKcdJeqT9wSmGzOeruXr0XNqCJWdXLQoDoPZlumxEwKmVC/rFLyHNebEUtWN5/Mo9q6zG9RlJ9ZvbSop8DdrKj+hQT3/IbvhR9dfbBzItNlV62Udx/ItIvMNTE/5jKlziPixu2BahF0HMLox5/6Zv8WHRjLsRN2QB6EvSdUdHeYOFyrFuodg4i0NZlaP3/tOyzGY0zYK/AqHUbC8dAptzOgNGF2bTAbsfQ4O10oMyx1UwgX8aBW6mMuUwv2VAYLe0mggJCAf+0fzIps/Og8Rwko0jwaI4Lthd8H8U4NrZ7nX0jaZrx64mw7yxIId+smLxkdYis05M54QP3x8BzsKOFvMDjvGDDqnGtJwp+h7rwGngH27NNZ2FzNyCesIfBycuEQs1ndlnTyKiEEKifKeHgOXLHB/qKWM/3pLeOsKJtj24/M8MNkEo95ocvQ0l1cevXrCx/0wJRhQOHEqZtoQ93cpDhoDu/nR8+o4egL+HKVsJFA87Sb8VDRfw5MHOSO7Ob3xoqaYY2+6TXeWl3HLb94nmXw7aoeKkTRcsqzragk9CndZcqCco+zy+rASAcQgwxWACXEP9RQrDlenc7Y7kpRztf7Ork627kvz52DG3GstkcZenttAs7Y7iVEkU1K8wYkmb5jRcQ2r1/WD497Lu7/g8iWgkZ8/JY4fC8UhuD6YmQ7zRH8wCcKZ6xEdE79c9uIT0nxLG5X4abkCIO5D/dEkmB7ve3e83t22XoTzbXdZj939Zj47HcNwujhcg9Vk4vsjjt4bo5HvT1bBYREu5+765jDIqWnezSo2yRM3qbSozOX9x8H6NBsDKuwdxp+KA3wBy9Ek0XASOZ+EA3Lw34DyHxVfQSjWi78BEr+vw+z151lFxbSgqarmMxEOoOI3YWMApLJhMaVpiQq2zL8Civnb2jj8S8bEDUxTMAJgpgr78F/iW5aMZAXMkO17iFsMPTtGJQJkzPoNYnvBjjl72DFo3vtf7/WwYgnRzaiR0Xv7cAdrKwiyqpkFcQz30i7rjmbEii0Kayj83PzbXm4gI1mrYQBacMazHha09SGJT2BUU/3AxLFiATvsVlsbzu7YgoGzgNZaTRcmigaaBkY19+nwE4UfzYKs628UO2txGXFKcnMNmLS2jOTSVJXZshWtj1CDfeN648a3KqD7ZtvGBYngVr38yK35jmMha07/M6eVbun9e0NGKmuvJ17vkZcba4IfOrXZt7E3p7VyBAwtjV50S2AwSwtYGuJHHCs6wfenTi36EVHPnmkMgasoFCkFwNjGho6Ub/RCL6fgoAg9BG+Lto9fCvxZxwRJwHdnXVkO1bGadfSToNOAGfGW1tKLMFnqpuknF4/AcS35U8YRpesXyc8EmEG0W64s6AWrjcEqdAGVgVwVUQCwyCbzNouJhZIlH8PJ4bS/OUSEh1EU3X1HhRnj3+9s3dPB/0tLl4rhaHWdLk/3x95dX15x/eMhmPSGDXD7H6I+843/kuBPAAAAAElFTkSuQmCC;" vertex="1" parent="tek8j3snjhFoZKs4BNM_-5">
          <mxGeometry y="2" width="26" height="26" as="geometry" />
        </mxCell>
        <mxCell id="tek8j3snjhFoZKs4BNM_-9" value="" style="rounded=0;whiteSpace=wrap;html=1;" vertex="1" parent="1">
          <mxGeometry x="200" y="80" width="190" height="280" as="geometry" />
        </mxCell>
        <mxCell id="tek8j3snjhFoZKs4BNM_-13" value="&lt;b&gt;gFaaS Function&lt;/b&gt;" style="text;html=1;strokeColor=none;fillColor=none;align=center;verticalAlign=middle;whiteSpace=wrap;rounded=0;" vertex="1" parent="1">
          <mxGeometry x="245" y="90" width="90" height="30" as="geometry" />
        </mxCell>
        <mxCell id="tek8j3snjhFoZKs4BNM_-15" value="&amp;nbsp; Function" style="rounded=0;whiteSpace=wrap;html=1;align=left;" vertex="1" parent="1">
          <mxGeometry x="210" y="150" width="160" height="30" as="geometry" />
        </mxCell>
        <mxCell id="tek8j3snjhFoZKs4BNM_-20" style="edgeStyle=orthogonalEdgeStyle;rounded=0;orthogonalLoop=1;jettySize=auto;html=1;entryX=0;entryY=0.5;entryDx=0;entryDy=0;startArrow=classic;startFill=1;" edge="1" parent="1" source="tek8j3snjhFoZKs4BNM_-16" target="tek8j3snjhFoZKs4BNM_-8">
          <mxGeometry relative="1" as="geometry">
            <Array as="points">
              <mxPoint x="430" y="255" />
              <mxPoint x="430" y="235" />
            </Array>
          </mxGeometry>
        </mxCell>
        <mxCell id="tek8j3snjhFoZKs4BNM_-21" style="edgeStyle=orthogonalEdgeStyle;rounded=0;orthogonalLoop=1;jettySize=auto;html=1;" edge="1" parent="1" source="tek8j3snjhFoZKs4BNM_-16">
          <mxGeometry relative="1" as="geometry">
            <mxPoint x="530" y="143" as="targetPoint" />
            <Array as="points">
              <mxPoint x="430" y="255" />
              <mxPoint x="430" y="143" />
            </Array>
          </mxGeometry>
        </mxCell>
        <mxCell id="tek8j3snjhFoZKs4BNM_-16" value="&amp;nbsp; GFaasSpringAdapter" style="rounded=0;whiteSpace=wrap;html=1;align=left;" vertex="1" parent="1">
          <mxGeometry x="210" y="240" width="160" height="30" as="geometry" />
        </mxCell>
        <mxCell id="tek8j3snjhFoZKs4BNM_-22" value="" style="endArrow=classic;html=1;rounded=0;entryX=0;entryY=0.5;entryDx=0;entryDy=0;startArrow=classic;startFill=1;" edge="1" parent="1" target="tek8j3snjhFoZKs4BNM_-15">
          <mxGeometry width="50" height="50" relative="1" as="geometry">
            <mxPoint x="70" y="165" as="sourcePoint" />
            <mxPoint x="440" y="280" as="targetPoint" />
          </mxGeometry>
        </mxCell>
        <mxCell id="tek8j3snjhFoZKs4BNM_-24" value="" style="endArrow=classic;html=1;rounded=0;entryX=0.25;entryY=0;entryDx=0;entryDy=0;exitX=0.25;exitY=1;exitDx=0;exitDy=0;startArrow=classic;startFill=1;" edge="1" parent="1" source="tek8j3snjhFoZKs4BNM_-15" target="tek8j3snjhFoZKs4BNM_-16">
          <mxGeometry width="50" height="50" relative="1" as="geometry">
            <mxPoint x="390" y="330" as="sourcePoint" />
            <mxPoint x="440" y="280" as="targetPoint" />
          </mxGeometry>
        </mxCell>
        <mxCell id="tek8j3snjhFoZKs4BNM_-33" value="" style="group" vertex="1" connectable="0" parent="1">
          <mxGeometry x="54" y="125.5" width="104" height="30" as="geometry" />
        </mxCell>
        <mxCell id="tek8j3snjhFoZKs4BNM_-35" value="" style="group" vertex="1" connectable="0" parent="tek8j3snjhFoZKs4BNM_-33">
          <mxGeometry width="104" height="30" as="geometry" />
        </mxCell>
        <mxCell id="tek8j3snjhFoZKs4BNM_-27" value="&lt;font color=&quot;#ffffff&quot;&gt;&lt;b&gt;1&lt;/b&gt;&lt;/font&gt;" style="ellipse;whiteSpace=wrap;html=1;aspect=fixed;fillColor=#000000;" vertex="1" parent="tek8j3snjhFoZKs4BNM_-35">
          <mxGeometry y="5" width="20" height="20" as="geometry" />
        </mxCell>
        <mxCell id="tek8j3snjhFoZKs4BNM_-28" value="Incoming HTTP request" style="text;html=1;strokeColor=none;fillColor=none;align=center;verticalAlign=middle;whiteSpace=wrap;rounded=0;" vertex="1" parent="tek8j3snjhFoZKs4BNM_-35">
          <mxGeometry x="19" width="85" height="30" as="geometry" />
        </mxCell>
        <mxCell id="tek8j3snjhFoZKs4BNM_-39" value="" style="group" vertex="1" connectable="0" parent="1">
          <mxGeometry x="255" y="181" width="130" height="30" as="geometry" />
        </mxCell>
        <mxCell id="tek8j3snjhFoZKs4BNM_-37" value="&lt;font color=&quot;#ffffff&quot;&gt;&lt;b&gt;2&lt;/b&gt;&lt;/font&gt;" style="ellipse;whiteSpace=wrap;html=1;aspect=fixed;fillColor=#000000;" vertex="1" parent="tek8j3snjhFoZKs4BNM_-39">
          <mxGeometry y="5" width="20" height="20" as="geometry" />
        </mxCell>
        <mxCell id="tek8j3snjhFoZKs4BNM_-38" value="Delegate request" style="text;html=1;strokeColor=none;fillColor=none;align=center;verticalAlign=middle;whiteSpace=wrap;rounded=0;" vertex="1" parent="tek8j3snjhFoZKs4BNM_-39">
          <mxGeometry x="19" width="111" height="30" as="geometry" />
        </mxCell>
        <mxCell id="tek8j3snjhFoZKs4BNM_-40" value="" style="group" vertex="1" connectable="0" parent="1">
          <mxGeometry x="245" y="288" width="130" height="30" as="geometry" />
        </mxCell>
        <mxCell id="tek8j3snjhFoZKs4BNM_-41" value="&lt;font color=&quot;#ffffff&quot;&gt;&lt;b&gt;3&lt;/b&gt;&lt;/font&gt;" style="ellipse;whiteSpace=wrap;html=1;aspect=fixed;fillColor=#000000;" vertex="1" parent="tek8j3snjhFoZKs4BNM_-40">
          <mxGeometry y="5" width="20" height="20" as="geometry" />
        </mxCell>
        <mxCell id="tek8j3snjhFoZKs4BNM_-42" value="Transform request" style="text;html=1;strokeColor=none;fillColor=none;align=center;verticalAlign=middle;whiteSpace=wrap;rounded=0;" vertex="1" parent="tek8j3snjhFoZKs4BNM_-40">
          <mxGeometry x="19" width="111" height="30" as="geometry" />
        </mxCell>
        <mxCell id="tek8j3snjhFoZKs4BNM_-44" value="" style="endArrow=classic;startArrow=classic;html=1;rounded=0;entryX=0.75;entryY=1;entryDx=0;entryDy=0;exitX=0.25;exitY=1;exitDx=0;exitDy=0;" edge="1" parent="1" source="tek8j3snjhFoZKs4BNM_-16" target="tek8j3snjhFoZKs4BNM_-16">
          <mxGeometry width="50" height="50" relative="1" as="geometry">
            <mxPoint x="240" y="420" as="sourcePoint" />
            <mxPoint x="410" y="280" as="targetPoint" />
            <Array as="points">
              <mxPoint x="250" y="290" />
              <mxPoint x="330" y="290" />
            </Array>
          </mxGeometry>
        </mxCell>
        <mxCell id="tek8j3snjhFoZKs4BNM_-46" value="" style="group" vertex="1" connectable="0" parent="1">
          <mxGeometry x="406" y="110" width="130" height="30" as="geometry" />
        </mxCell>
        <mxCell id="tek8j3snjhFoZKs4BNM_-47" value="&lt;font color=&quot;#ffffff&quot;&gt;&lt;b&gt;4&lt;/b&gt;&lt;/font&gt;" style="ellipse;whiteSpace=wrap;html=1;aspect=fixed;fillColor=#000000;" vertex="1" parent="tek8j3snjhFoZKs4BNM_-46">
          <mxGeometry y="5" width="20" height="20" as="geometry" />
        </mxCell>
        <mxCell id="tek8j3snjhFoZKs4BNM_-48" value="Initialise &lt;br&gt;SpringBootApp" style="text;html=1;strokeColor=none;fillColor=none;align=center;verticalAlign=middle;whiteSpace=wrap;rounded=0;" vertex="1" parent="tek8j3snjhFoZKs4BNM_-46">
          <mxGeometry x="19" width="91" height="30" as="geometry" />
        </mxCell>
        <mxCell id="tek8j3snjhFoZKs4BNM_-53" value="" style="group" vertex="1" connectable="0" parent="1">
          <mxGeometry x="540" y="150" width="160" height="30" as="geometry" />
        </mxCell>
        <mxCell id="tek8j3snjhFoZKs4BNM_-6" value="&amp;nbsp; &amp;nbsp; &amp;nbsp; &amp;nbsp; &amp;nbsp; &amp;nbsp; /hello" style="rounded=0;whiteSpace=wrap;html=1;align=left;" vertex="1" parent="tek8j3snjhFoZKs4BNM_-53">
          <mxGeometry width="160" height="30" as="geometry" />
        </mxCell>
        <mxCell id="tek8j3snjhFoZKs4BNM_-17" value="" style="shape=image;verticalLabelPosition=bottom;labelBackgroundColor=default;verticalAlign=top;aspect=fixed;imageAspect=0;image=data:image/png,iVBORw0KGgoAAAANSUhEUgAAAOEAAADhCAMAAAAJbSJIAAAAq1BMVEVtmgD///9qmABolwBhkwBklQBekQD///16ojCMrlH8/fnq8N13oCaOr1bh6s3+//rw9OTY5LuGqkdTiwD1+PHG1qvM2rSat2txnRTN27GyyI6hvHbo79r4+vC2y5V1nyHj69HU4b6ApjuXtWSJrT5/pim8z566zpN6oxrJ2aebuGb2+eqUtFXl7dOlv3+jv3Kfu2GRsk2wx4LP27uKrjbC1Z+EqiiyyIatxXcjxhBTAAAN8ElEQVR4nOWda2OiOhCGISHQIoprUalovVRta7u9bLdn9///sgNe2gz3GYJi9/1y9iwL5DFhkkkmE00/jizbtV3L2v3Ziv7POtKbtfpfYXut8bj1o3cZqh0p+kPvOvpLz67/9bUSupPBzehmZRqhBIMS0V+aWni9P3HrLERdhN5svp46Uy44Z1qORPgvwn+3ns+8mkpSB6HlBsHCEGGt5bFJCmtUGL0gcOuoTNWE1qR/a5oFFZeOyblp3vY91RZIKaHV6vQWBh5OwhSLy7uuUvujknD0apZvmZmMTJir0URdqVQRTjoLR/CKdJ+UYrrodBWVTA2hFbwZlWsPQhp+oOaLVEBoD0ZXBMtSKG6+DhR8kZUJrUHPUNU6E4xGrzpjVcJ+NdtZJGYs1qck9ObTOponZOT+vNJwpwph2D7r5tsyhm31JIQtTRyDb8soxPjohF7gHItvy+gE1EEAkXBeS/+Qh8iv1jRGCqE1WxyVbi9+MaOMASiEI/O49XcQM0dHIZxd1dXBF4tfdWontF/8k/FFmg6xgxwkodsTJwXUNNFDIuII1/7pWuhBfHpTH2HfPDXeVma/JsLum3Fqtr2EaNVB2GpACz2I+eURSxO2/NN0guliTmmnqiShFWhNAowcjqCkTS1JGJy6k0hKDBUS2u3mAYaI7VK1WIbQHjYRMKrFMohlCBtZg5FEWwlhU2swUplaLCZsMGApc1NE2Ewj86Vic1NA2OQmulNhQy0gbHgNRioyN/mEDezokyqoxVzC56Y4E/kSAZWwdeqil5WRNwzPIWyWN5En5uQ4U9mE3bMBzPcXswnvzwcwWtnAE/bPw8ocJDLnbrII182YdCovM2sGLoPQPu28L0XTjEWNdEKr15xZp7LiGVPF6YSNH42mKcPPSCWcnV8bjeSnLtukEl6duqxEXZUlHJ1jG43ERynWJoVwdm4dxZfMWRlCa3FOgxkodpEMvUkS9s8XMLSnyX4/QejRzAxjXBxUpYQHcWKoo5kI2EgQPhP6eiY05+L17uF6pympbJH8/RP6d68XDikiiSeWM+KELXwgEDOX67kcg35BbefsQnqK21k/mfif24xHiMUJ8b8ba8fDXNQQ6lHc+C3+ITyfcID9iNjVPNEHKSPUo9gW7MNErBIhoddDPo+tUsKxVRLqkzdkS2U92GNAwnek28u0tNkDpYT64wr5OGOeQzjFVmFqUKRaQr2FLZSfTdhHNgjxK61Eqgn1B2TL4mBGQybEjtfYffqeCNWEHrZcC7lPlAkH2N8qI1RQNaG+Rlp4QzanEqGLNaRmxrYW5YQu0tth8oSGRIitQi05ane7rXGr62Cf8ymnFaqb3KOHNqdSJUqlfMHamTtQCmv86jhTPxTuMUDR7b7jvHXg6LKPHYhIAxuJEOv4indQisCg+gNxMcbMW1CR71hCM40wQI9ygUN9o3aOHK6YdbGfNv+6/ZOwi23rrCe7YrbqZQ4hj72sS+zT/W6CcIatAwZWl7uqJ3cMMDV4iyX8uv2TED07w27lIlyrnp/jL4AQ+wmxXpzQRXu+fCMXAWuIi4sIfsC/6Mez9xjhDboOOBiUoptRYQnBR/CALt7nnNSe0F6iSyg+6iW8lLvEOZqQTW1ASDAU4odM2FZOCEw12g5+jSn3hARDAYydpZ5w8Sg9f4wn5ENAiO5vYoQu4QH5YhfyuL6FJzx8yDvCCWEmv+mEGp9LhJSwhMYT7oMXdoQUS9h4wn2PuiOkDLkaT6iZ7ich1ofe6gwIrU9CymoMJLSbSLhzobaEeNdQq78OVwoJsbN1OxmyA4yexSoUW42rEu7m9yNCwpBIixFOlBNq9z+rEu6aWUSIH9Zub5d/48caFv/lr6BLIhQHQuyE606GvCjTws6BlCiePNE1IRGytz0hdj1mJ0O2BDPKE/IFCD0aobMjxLv3WxnyVBF6uq9YkJA0DcQcd0s4oUUW1E4oryARp/Kmky3hgDTFwu5lHxy9Ol4sMEtivZIKKdZbQvwUzbYAYC7sl/p4VPZbfgGxkKMt4Yj284Doo981BFIZ8gto9n5PeEMihAutdQT7mfILOqRHRC1d021aVzaVp1Fo3VWBYMQBzeALLyQkGuKV/Hr8dGYJwSVmmqkxHkNC2oAI/sAk96tIfCNb6xZ1aKlRJuqi8ZDcG6JDXkq+RB412RuSi0cmvAJrh5169teIB/klY0pYaDh41iyCY8I1uPyLXxIopVjgwruGr0WjY2v2D0QDZ4xxLswlDKeOWXJhmKaZni2SF12CoZEM/pCzpRklXsaspfO2pWG8c7Z6etoEo3iQSVsuMr+/i/qR7nNycx/3g+jS5FcyDwzTniNnbHK3kn9vtoqFw3ZHwebpCfHVs8uwDhEzLOLBTskxDqaTxebgNk7ig2W+PFzqPsUQ2adR6YLtOuJP4m2uh2l17DKsQwzhj8QLwzLJ7iW//LrgwU6aL7/CKyyIyBxpnQku96Ztg0EYtogQEwSQRujJ6QXZVHb8PXAz2OYJN6hy+dJEjrtgPCWz53EJYUXFWpW8+YbDDdd/si+BQTaoXgJhaGkwa5tJwjFMEGnCX1w2ssYjuGRJY0U2B5dsAMB4oqGiCPVKhPZH3GBCOyTPj5jwVtkbmcJqsqErxrQ/Met2RMLfsRSR7HesLBdlCLezKZKs2PiMmbEQwWPW4V08PxYktGh1GBsiseeYtTkiYTjMyP0Of0qXYt+hXvo7FNfxlyIJ1dpSGJAJbCmMCb/LvtSHtjS5GwBpS9X2h448opuAm2F/CEZewE0CMQWMp8QhH7nH18dyxCyXIpnsJbAY/E0yKBsw8IJjGlCFaW9EEqLGpdd6yjbUDzAuHR5+dC8+QOZPn4PPuDfL7g+IE5ASRzwnX2fpqHGpi/MtlsNN8PwRH2WAJ4jVR1RXk5GTcCC4/ye6ZEEHYvdkf3ukhfuwBDWoxayo+/AcbIYId3TrW2DCoULvMPIPX+HX34E9tDAjpW2Cy7m08w9jlzjcpNV9ifxD1Akv7Mmi+fg+dE1r2jnMHPBNdJJVXygR+vikeRp2BTY8zWuapwF9zyNlS2k0T0OcawNp0tAx4uUEnCprSJ5roy2Rw53vpGCOIrFXRfOlKua8P+qf88ZutNzJmETrFsTFR3mc+VjHhwjGF/SFavr6Yf1rT7IlnZMewV+sCuuHIEfaf81eP6TdDCZX6lgD/k9+Aa0a9oTYvbH7Ahx1Hd9+oi0frs8mFsMr/vdp2sdiEM2UeT7xNN85JsqqFNcG4j+bGde21P+V2MTvH1+Kzvexu/2MYoS/f5y3AsKmx+p/0/0WO1v4j+yZ+Z77nri87+n7712j7ClpPKHxLhF+/z2kIHCgpM5sH/D338tt4xOww8jBGvbjy6v71ffjEzwocV45FcCSeznBvBik+NY8wbwY+JmuRF6MqrlNlEd6K89tgo/zrTk/jZhX+ghS8tN0sQmsYjmGkHcXFxHkGEKb6pQcQ0kXqgjZl51wfaQ4TxRopEryROEdDAMuBA9NRam+ooBa4wkEGOFzfX3dLhFi16BieZftztKhZxCW5Tur2IHx6Cn19HxtCnLuPf7shKLn3JtGt3eSQULYzQAZOfdsdN7Ex0RRtmps3kR0JYpzy32Jz1+6Sj/PXXn+UmTjys5fis9Be6enSTXhNTavKli8hdYC62Gw1GOWFBN2sY/xQdOqmAs6Nc+uWkLvDWtI5+D+ivm8+TLFnioldDdIM8MuoXWonpM9uatFJeGYYb2K/JzslLz62m2rtrz6jxv8UdIFefUpe6a5+bQGg3BFhK31po6zEUirNEz4zvLvx2C+E310Ot0/YfDwd+n4glCU4vMtiDEBzTmjJGH5kqNnWgBRQ1TmnBndI39Gpxe7SI4jv9l5TylnNaQQWrQYsgao7Jld/8C5a/pMzWzEsTUtf3be9z//ULfP8AxLmFq5iFC3z6+dwknyQsLvf5Ys4UiJ0yprVizvTGfKJpyTiYnkwSaFhOd1LnfqwVMFhHqLFjt8EpHOVg+tzbkczW0kU6CUI9SD87A28MQWFKF9FmMbMUzv6ssQ6nq7+YiinY9QQNj8WhQvuTVYSKjbDa9FcVsAWEjYcD8jw5/AETa5oRYYmZKEDTY34ra48KUIm1qLhUamNGFDzY1olwEsR9hIc1PCyGAI7cBo2DDcKGFkMIThMLxRngbzMz1eMqHeapC/yPwcd4lMqLcqrSqplBDZDm8VQl3vN2N6ylwXF5VIqN8kM48eXYxlzaqpINTt3qlbquilzt0rIwzHN1UOw62u6TAl3adSQl3vXJ2upfKU2Bb1hLo+Mk/TbzCzdCdYkdCaXZziaxQXs5LDmMqEuj65IUS6VBM3bzIOOq+FMMqNpyxuvZTMICMguTZC3Z2Lo61sMMEHlAZajTDUoHcUh4MZl/3iwtRCqHtzH5Pij8bH/Xl6sPUxCEOtF7XWIzMWqEFoDYS6V2dbNXoD7BBGPWE4kBtotfQd3BR0+6KUMJQV+Iorkhn+MCXAiSA1hLre7Sw0Zb0HE2yRsjeIJlWEoTqjqanAtDJuTkfvxa8rK4WE4RfZHV76lWqSC94edhV8fV9SSqhHo/L+rWmiMuF+1h03zNv+XM3X9yXVhJFcKwh6BiKQmTEmjF4QPGaGjFRQHYSRvE7n1XGmUWbj/GbJuZg6zrLTqdzxZaguwq3cyXo0+iWMSNEZP0C7v34ZjdYTV3XLlFUr4U5edzxuddqXodo7RX986rTG465XJ9tORyDcyrZs17J2POF/w/9TajBz9D9xKN+EEkeZQQAAAABJRU5ErkJggg==;" vertex="1" parent="tek8j3snjhFoZKs4BNM_-53">
          <mxGeometry x="6" y="3.5" width="23" height="23" as="geometry" />
        </mxCell>
        <mxCell id="tek8j3snjhFoZKs4BNM_-54" value="" style="group" vertex="1" connectable="0" parent="1">
          <mxGeometry x="540" y="220" width="160" height="30" as="geometry" />
        </mxCell>
        <mxCell id="tek8j3snjhFoZKs4BNM_-8" value="&amp;nbsp; &amp;nbsp; &amp;nbsp; &amp;nbsp; &amp;nbsp; &amp;nbsp; /getWorld" style="rounded=0;whiteSpace=wrap;html=1;align=left;" vertex="1" parent="tek8j3snjhFoZKs4BNM_-54">
          <mxGeometry width="160" height="30" as="geometry" />
        </mxCell>
        <mxCell id="tek8j3snjhFoZKs4BNM_-18" value="" style="shape=image;verticalLabelPosition=bottom;labelBackgroundColor=default;verticalAlign=top;aspect=fixed;imageAspect=0;image=data:image/png,iVBORw0KGgoAAAANSUhEUgAAAOEAAADhCAMAAAAJbSJIAAAAq1BMVEVtmgD///9qmABolwBhkwBklQBekQD///16ojCMrlH8/fnq8N13oCaOr1bh6s3+//rw9OTY5LuGqkdTiwD1+PHG1qvM2rSat2txnRTN27GyyI6hvHbo79r4+vC2y5V1nyHj69HU4b6ApjuXtWSJrT5/pim8z566zpN6oxrJ2aebuGb2+eqUtFXl7dOlv3+jv3Kfu2GRsk2wx4LP27uKrjbC1Z+EqiiyyIatxXcjxhBTAAAN8ElEQVR4nOWda2OiOhCGISHQIoprUalovVRta7u9bLdn9///sgNe2gz3GYJi9/1y9iwL5DFhkkkmE00/jizbtV3L2v3Ziv7POtKbtfpfYXut8bj1o3cZqh0p+kPvOvpLz67/9bUSupPBzehmZRqhBIMS0V+aWni9P3HrLERdhN5svp46Uy44Z1qORPgvwn+3ns+8mkpSB6HlBsHCEGGt5bFJCmtUGL0gcOuoTNWE1qR/a5oFFZeOyblp3vY91RZIKaHV6vQWBh5OwhSLy7uuUvujknD0apZvmZmMTJir0URdqVQRTjoLR/CKdJ+UYrrodBWVTA2hFbwZlWsPQhp+oOaLVEBoD0ZXBMtSKG6+DhR8kZUJrUHPUNU6E4xGrzpjVcJ+NdtZJGYs1qck9ObTOponZOT+vNJwpwph2D7r5tsyhm31JIQtTRyDb8soxPjohF7gHItvy+gE1EEAkXBeS/+Qh8iv1jRGCqE1WxyVbi9+MaOMASiEI/O49XcQM0dHIZxd1dXBF4tfdWontF/8k/FFmg6xgxwkodsTJwXUNNFDIuII1/7pWuhBfHpTH2HfPDXeVma/JsLum3Fqtr2EaNVB2GpACz2I+eURSxO2/NN0guliTmmnqiShFWhNAowcjqCkTS1JGJy6k0hKDBUS2u3mAYaI7VK1WIbQHjYRMKrFMohlCBtZg5FEWwlhU2swUplaLCZsMGApc1NE2Ewj86Vic1NA2OQmulNhQy0gbHgNRioyN/mEDezokyqoxVzC56Y4E/kSAZWwdeqil5WRNwzPIWyWN5En5uQ4U9mE3bMBzPcXswnvzwcwWtnAE/bPw8ocJDLnbrII182YdCovM2sGLoPQPu28L0XTjEWNdEKr15xZp7LiGVPF6YSNH42mKcPPSCWcnV8bjeSnLtukEl6duqxEXZUlHJ1jG43ERynWJoVwdm4dxZfMWRlCa3FOgxkodpEMvUkS9s8XMLSnyX4/QejRzAxjXBxUpYQHcWKoo5kI2EgQPhP6eiY05+L17uF6pympbJH8/RP6d68XDikiiSeWM+KELXwgEDOX67kcg35BbefsQnqK21k/mfif24xHiMUJ8b8ba8fDXNQQ6lHc+C3+ITyfcID9iNjVPNEHKSPUo9gW7MNErBIhoddDPo+tUsKxVRLqkzdkS2U92GNAwnek28u0tNkDpYT64wr5OGOeQzjFVmFqUKRaQr2FLZSfTdhHNgjxK61Eqgn1B2TL4mBGQybEjtfYffqeCNWEHrZcC7lPlAkH2N8qI1RQNaG+Rlp4QzanEqGLNaRmxrYW5YQu0tth8oSGRIitQi05ane7rXGr62Cf8ymnFaqb3KOHNqdSJUqlfMHamTtQCmv86jhTPxTuMUDR7b7jvHXg6LKPHYhIAxuJEOv4indQisCg+gNxMcbMW1CR71hCM40wQI9ygUN9o3aOHK6YdbGfNv+6/ZOwi23rrCe7YrbqZQ4hj72sS+zT/W6CcIatAwZWl7uqJ3cMMDV4iyX8uv2TED07w27lIlyrnp/jL4AQ+wmxXpzQRXu+fCMXAWuIi4sIfsC/6Mez9xjhDboOOBiUoptRYQnBR/CALt7nnNSe0F6iSyg+6iW8lLvEOZqQTW1ASDAU4odM2FZOCEw12g5+jSn3hARDAYydpZ5w8Sg9f4wn5ENAiO5vYoQu4QH5YhfyuL6FJzx8yDvCCWEmv+mEGp9LhJSwhMYT7oMXdoQUS9h4wn2PuiOkDLkaT6iZ7ich1ofe6gwIrU9CymoMJLSbSLhzobaEeNdQq78OVwoJsbN1OxmyA4yexSoUW42rEu7m9yNCwpBIixFOlBNq9z+rEu6aWUSIH9Zub5d/48caFv/lr6BLIhQHQuyE606GvCjTws6BlCiePNE1IRGytz0hdj1mJ0O2BDPKE/IFCD0aobMjxLv3WxnyVBF6uq9YkJA0DcQcd0s4oUUW1E4oryARp/Kmky3hgDTFwu5lHxy9Ol4sMEtivZIKKdZbQvwUzbYAYC7sl/p4VPZbfgGxkKMt4Yj284Doo981BFIZ8gto9n5PeEMihAutdQT7mfILOqRHRC1d021aVzaVp1Fo3VWBYMQBzeALLyQkGuKV/Hr8dGYJwSVmmqkxHkNC2oAI/sAk96tIfCNb6xZ1aKlRJuqi8ZDcG6JDXkq+RB412RuSi0cmvAJrh5169teIB/klY0pYaDh41iyCY8I1uPyLXxIopVjgwruGr0WjY2v2D0QDZ4xxLswlDKeOWXJhmKaZni2SF12CoZEM/pCzpRklXsaspfO2pWG8c7Z6etoEo3iQSVsuMr+/i/qR7nNycx/3g+jS5FcyDwzTniNnbHK3kn9vtoqFw3ZHwebpCfHVs8uwDhEzLOLBTskxDqaTxebgNk7ig2W+PFzqPsUQ2adR6YLtOuJP4m2uh2l17DKsQwzhj8QLwzLJ7iW//LrgwU6aL7/CKyyIyBxpnQku96Ztg0EYtogQEwSQRujJ6QXZVHb8PXAz2OYJN6hy+dJEjrtgPCWz53EJYUXFWpW8+YbDDdd/si+BQTaoXgJhaGkwa5tJwjFMEGnCX1w2ssYjuGRJY0U2B5dsAMB4oqGiCPVKhPZH3GBCOyTPj5jwVtkbmcJqsqErxrQ/Met2RMLfsRSR7HesLBdlCLezKZKs2PiMmbEQwWPW4V08PxYktGh1GBsiseeYtTkiYTjMyP0Of0qXYt+hXvo7FNfxlyIJ1dpSGJAJbCmMCb/LvtSHtjS5GwBpS9X2h448opuAm2F/CEZewE0CMQWMp8QhH7nH18dyxCyXIpnsJbAY/E0yKBsw8IJjGlCFaW9EEqLGpdd6yjbUDzAuHR5+dC8+QOZPn4PPuDfL7g+IE5ASRzwnX2fpqHGpi/MtlsNN8PwRH2WAJ4jVR1RXk5GTcCC4/ye6ZEEHYvdkf3ukhfuwBDWoxayo+/AcbIYId3TrW2DCoULvMPIPX+HX34E9tDAjpW2Cy7m08w9jlzjcpNV9ifxD1Akv7Mmi+fg+dE1r2jnMHPBNdJJVXygR+vikeRp2BTY8zWuapwF9zyNlS2k0T0OcawNp0tAx4uUEnCprSJ5roy2Rw53vpGCOIrFXRfOlKua8P+qf88ZutNzJmETrFsTFR3mc+VjHhwjGF/SFavr6Yf1rT7IlnZMewV+sCuuHIEfaf81eP6TdDCZX6lgD/k9+Aa0a9oTYvbH7Ahx1Hd9+oi0frs8mFsMr/vdp2sdiEM2UeT7xNN85JsqqFNcG4j+bGde21P+V2MTvH1+Kzvexu/2MYoS/f5y3AsKmx+p/0/0WO1v4j+yZ+Z77nri87+n7712j7ClpPKHxLhF+/z2kIHCgpM5sH/D338tt4xOww8jBGvbjy6v71ffjEzwocV45FcCSeznBvBik+NY8wbwY+JmuRF6MqrlNlEd6K89tgo/zrTk/jZhX+ghS8tN0sQmsYjmGkHcXFxHkGEKb6pQcQ0kXqgjZl51wfaQ4TxRopEryROEdDAMuBA9NRam+ooBa4wkEGOFzfX3dLhFi16BieZftztKhZxCW5Tur2IHx6Cn19HxtCnLuPf7shKLn3JtGt3eSQULYzQAZOfdsdN7Ex0RRtmps3kR0JYpzy32Jz1+6Sj/PXXn+UmTjys5fis9Be6enSTXhNTavKli8hdYC62Gw1GOWFBN2sY/xQdOqmAs6Nc+uWkLvDWtI5+D+ivm8+TLFnioldDdIM8MuoXWonpM9uatFJeGYYb2K/JzslLz62m2rtrz6jxv8UdIFefUpe6a5+bQGg3BFhK31po6zEUirNEz4zvLvx2C+E310Ot0/YfDwd+n4glCU4vMtiDEBzTmjJGH5kqNnWgBRQ1TmnBndI39Gpxe7SI4jv9l5TylnNaQQWrQYsgao7Jld/8C5a/pMzWzEsTUtf3be9z//ULfP8AxLmFq5iFC3z6+dwknyQsLvf5Ys4UiJ0yprVizvTGfKJpyTiYnkwSaFhOd1LnfqwVMFhHqLFjt8EpHOVg+tzbkczW0kU6CUI9SD87A28MQWFKF9FmMbMUzv6ssQ6nq7+YiinY9QQNj8WhQvuTVYSKjbDa9FcVsAWEjYcD8jw5/AETa5oRYYmZKEDTY34ra48KUIm1qLhUamNGFDzY1olwEsR9hIc1PCyGAI7cBo2DDcKGFkMIThMLxRngbzMz1eMqHeapC/yPwcd4lMqLcqrSqplBDZDm8VQl3vN2N6ylwXF5VIqN8kM48eXYxlzaqpINTt3qlbquilzt0rIwzHN1UOw62u6TAl3adSQl3vXJ2upfKU2Bb1hLo+Mk/TbzCzdCdYkdCaXZziaxQXs5LDmMqEuj65IUS6VBM3bzIOOq+FMMqNpyxuvZTMICMguTZC3Z2Lo61sMMEHlAZajTDUoHcUh4MZl/3iwtRCqHtzH5Pij8bH/Xl6sPUxCEOtF7XWIzMWqEFoDYS6V2dbNXoD7BBGPWE4kBtotfQd3BR0+6KUMJQV+Iorkhn+MCXAiSA1hLre7Sw0Zb0HE2yRsjeIJlWEoTqjqanAtDJuTkfvxa8rK4WE4RfZHV76lWqSC94edhV8fV9SSqhHo/L+rWmiMuF+1h03zNv+XM3X9yXVhJFcKwh6BiKQmTEmjF4QPGaGjFRQHYSRvE7n1XGmUWbj/GbJuZg6zrLTqdzxZaguwq3cyXo0+iWMSNEZP0C7v34ZjdYTV3XLlFUr4U5edzxuddqXodo7RX986rTG465XJ9tORyDcyrZs17J2POF/w/9TajBz9D9xKN+EEkeZQQAAAABJRU5ErkJggg==;" vertex="1" parent="tek8j3snjhFoZKs4BNM_-54">
          <mxGeometry x="6" y="3.5" width="23" height="23" as="geometry" />
        </mxCell>
        <mxCell id="tek8j3snjhFoZKs4BNM_-56" value="" style="group" vertex="1" connectable="0" parent="1">
          <mxGeometry x="400" y="260" width="130" height="30" as="geometry" />
        </mxCell>
        <mxCell id="tek8j3snjhFoZKs4BNM_-57" value="&lt;font color=&quot;#ffffff&quot;&gt;&lt;b&gt;5&lt;/b&gt;&lt;/font&gt;" style="ellipse;whiteSpace=wrap;html=1;aspect=fixed;fillColor=#000000;" vertex="1" parent="tek8j3snjhFoZKs4BNM_-56">
          <mxGeometry y="5" width="20" height="20" as="geometry" />
        </mxCell>
        <mxCell id="tek8j3snjhFoZKs4BNM_-58" value="Invoke Spring Function and receive response" style="text;html=1;strokeColor=none;fillColor=none;align=center;verticalAlign=middle;whiteSpace=wrap;rounded=0;" vertex="1" parent="tek8j3snjhFoZKs4BNM_-56">
          <mxGeometry x="19" width="111" height="30" as="geometry" />
        </mxCell>
        <mxCell id="tek8j3snjhFoZKs4BNM_-59" value="" style="group" vertex="1" connectable="0" parent="1">
          <mxGeometry x="245" y="318" width="140" height="30" as="geometry" />
        </mxCell>
        <mxCell id="tek8j3snjhFoZKs4BNM_-60" value="&lt;font color=&quot;#ffffff&quot;&gt;&lt;b&gt;6&lt;/b&gt;&lt;/font&gt;" style="ellipse;whiteSpace=wrap;html=1;aspect=fixed;fillColor=#000000;" vertex="1" parent="tek8j3snjhFoZKs4BNM_-59">
          <mxGeometry y="5" width="20" height="20" as="geometry" />
        </mxCell>
        <mxCell id="tek8j3snjhFoZKs4BNM_-61" value="Transform response" style="text;html=1;strokeColor=none;fillColor=none;align=center;verticalAlign=middle;whiteSpace=wrap;rounded=0;" vertex="1" parent="tek8j3snjhFoZKs4BNM_-59">
          <mxGeometry x="19" width="121" height="30" as="geometry" />
        </mxCell>
        <mxCell id="tek8j3snjhFoZKs4BNM_-62" value="" style="group" vertex="1" connectable="0" parent="1">
          <mxGeometry x="255" y="208" width="130" height="30" as="geometry" />
        </mxCell>
        <mxCell id="tek8j3snjhFoZKs4BNM_-63" value="&lt;font color=&quot;#ffffff&quot;&gt;&lt;b&gt;7&lt;/b&gt;&lt;/font&gt;" style="ellipse;whiteSpace=wrap;html=1;aspect=fixed;fillColor=#000000;" vertex="1" parent="tek8j3snjhFoZKs4BNM_-62">
          <mxGeometry y="5" width="20" height="20" as="geometry" />
        </mxCell>
        <mxCell id="tek8j3snjhFoZKs4BNM_-64" value="Return response" style="text;html=1;strokeColor=none;fillColor=none;align=center;verticalAlign=middle;whiteSpace=wrap;rounded=0;" vertex="1" parent="tek8j3snjhFoZKs4BNM_-62">
          <mxGeometry x="19" width="111" height="30" as="geometry" />
        </mxCell>
        <mxCell id="tek8j3snjhFoZKs4BNM_-65" value="" style="group" vertex="1" connectable="0" parent="1">
          <mxGeometry x="54" y="170" width="130" height="30" as="geometry" />
        </mxCell>
        <mxCell id="tek8j3snjhFoZKs4BNM_-66" value="&lt;font color=&quot;#ffffff&quot;&gt;&lt;b&gt;8&lt;/b&gt;&lt;/font&gt;" style="ellipse;whiteSpace=wrap;html=1;aspect=fixed;fillColor=#000000;" vertex="1" parent="tek8j3snjhFoZKs4BNM_-65">
          <mxGeometry y="5" width="20" height="20" as="geometry" />
        </mxCell>
        <mxCell id="tek8j3snjhFoZKs4BNM_-67" value="Send &lt;br&gt;response" style="text;html=1;strokeColor=none;fillColor=none;align=center;verticalAlign=middle;whiteSpace=wrap;rounded=0;" vertex="1" parent="tek8j3snjhFoZKs4BNM_-65">
          <mxGeometry x="19" width="71" height="30" as="geometry" />
        </mxCell>
        <mxCell id="tek8j3snjhFoZKs4BNM_-68" value="&lt;b&gt;Function Image&lt;/b&gt;" style="text;html=1;strokeColor=none;fillColor=none;align=center;verticalAlign=middle;whiteSpace=wrap;rounded=0;" vertex="1" parent="1">
          <mxGeometry x="200" y="40" width="100" height="30" as="geometry" />
        </mxCell>
      </root>
    </mxGraphModel>
  </diagram>
</mxfile>
